# xmcd
#
# Track frame offsets: 
#        150
#        19875
#        41107
#        62378
#        82217
#        99017
#        121834
#        137746
#        159813
#        189099
#        212739
#        234643
#
# Disc length: 3349 seconds
#
# Revision: 1
# Processed by: cddbd v1.5.2PL0 Copyright (c) Steve Scherf et al.
# Submitted via: ExactAudioCopy v1.0b4
#
DISCID=920d130c
DTITLE=The Beat Daddys - Root Rubbin' Ball
DYEAR=2012
DGENRE=Electric Blues
TTITLE0=Fuel for My Blues 
TTITLE1=Gimme Gimme 
TTITLE2=Tattoo Hell 
TTITLE3=Do These Blues Match This Stress 
TTITLE4=How Fat Is Fat 
TTITLE5=Monkey Man 
TTITLE6=Root Rubbin' Ball 
TTITLE7=Hell and High Water 
TTITLE8=Nickels and Dimes 
TTITLE9=Highway Miles 
TTITLE10=Let the Guitar 
TTITLE11=I Ain't Afraid of the Fire 
EXTD=
EXTT0=
EXTT1=
EXTT2=
EXTT3=
EXTT4=
EXTT5=
EXTT6=
EXTT7=
EXTT8=
EXTT9=
EXTT10=
EXTT11=
PLAYORDER=
